<svg width="1920" height="1920" viewBox="0 0 1920 1920" fill="none" xmlns="http://www.w3.org/2000/svg">
<mask id="mask0_16_1035" style="mask-type:alpha" maskUnits="userSpaceOnUse" x="0" y="0" width="1920" height="1920">
<path d="M0 0H1920V1920H0V0Z" fill="#FDEEF8"/>
</mask>
<g mask="url(#mask0_16_1035)">
<mask id="mask1_16_1035" style="mask-type:luminance" maskUnits="userSpaceOnUse" x="-1237" y="-261" width="4393" height="2442">
<path d="M3156 -261H-1237V2181H3156V-261Z" fill="white"/>
</mask>
<g mask="url(#mask1_16_1035)">
<path d="M3156 -261H-1237V2181H3156V-261Z" fill="#FDEEF8"/>
<path d="M249.57 -248.615L270.37 -260.581L1666.4 2166.58L1645.59 2178.55L249.57 -248.615Z" fill="white"/>
<path d="M249.57 -248.615L270.37 -260.581L1666.4 2166.58L1645.59 2178.55L249.57 -248.615Z" fill="white"/>
<path d="M257.29 -246.532L267.7 -252.515L1663.72 2174.65L1653.32 2180.63L257.29 -246.532Z" fill="#F09FC2"/>
<path d="M217.57 -248.615L238.37 -260.581L1634.4 2166.58L1613.59 2178.55L217.57 -248.615Z" fill="white"/>
<path d="M217.57 -248.615L238.37 -260.581L1634.4 2166.58L1613.59 2178.55L217.57 -248.615Z" fill="white"/>
<path d="M225.29 -246.532L235.7 -252.515L1631.72 2174.65L1621.32 2180.63L225.29 -246.532Z" fill="#F09FC2"/>
<path d="M180.57 -248.615L201.37 -260.581L1597.4 2166.58L1576.59 2178.55L180.57 -248.615Z" fill="white"/>
<path d="M180.57 -248.615L201.37 -260.581L1597.4 2166.58L1576.59 2178.55L180.57 -248.615Z" fill="white"/>
<path d="M188.29 -246.532L198.7 -252.515L1594.72 2174.65L1584.32 2180.63L188.29 -246.532Z" fill="#F09FC2"/>
<path d="M180.57 -248.615L201.36 -260.572L1596.33 2164.77L1575.54 2176.72L180.57 -248.615Z" fill="white"/>
<path d="M180.57 -248.615L201.36 -260.572L1596.33 2164.77L1575.54 2176.72L180.57 -248.615Z" fill="white"/>
<path d="M188.28 -246.535L198.67 -252.521L1591.82 2173.87L1581.43 2179.85L188.28 -246.535Z" fill="#F09FC2"/>
<path d="M143.57 -248.615L164.36 -260.572L1559.33 2164.77L1538.54 2176.72L143.57 -248.615Z" fill="white"/>
<path d="M143.57 -248.615L164.36 -260.572L1559.33 2164.77L1538.54 2176.72L143.57 -248.615Z" fill="white"/>
<path d="M151.28 -246.535L161.67 -252.521L1554.82 2173.87L1544.43 2179.85L151.28 -246.535Z" fill="#F09FC2"/>
<path d="M104.57 -248.615L125.36 -260.572L1520.33 2164.77L1499.54 2176.72L104.57 -248.615Z" fill="white"/>
<path d="M104.57 -248.615L125.36 -260.572L1520.33 2164.77L1499.54 2176.72L104.57 -248.615Z" fill="white"/>
<path d="M112.28 -246.535L122.67 -252.521L1515.82 2173.87L1505.43 2179.85L112.28 -246.535Z" fill="#F09FC2"/>
<path d="M67.5698 -248.615L88.3599 -260.572L1483.33 2164.77L1462.54 2176.72L67.5698 -248.615Z" fill="white"/>
<path d="M67.5698 -248.615L88.3599 -260.572L1483.33 2164.77L1462.54 2176.72L67.5698 -248.615Z" fill="white"/>
<path d="M75.28 -246.535L85.67 -252.521L1478.82 2173.87L1468.43 2179.85L75.28 -246.535Z" fill="#F09FC2"/>
<path d="M29.5698 -248.615L50.3599 -260.572L1445.33 2164.77L1424.54 2176.72L29.5698 -248.615Z" fill="white"/>
<path d="M29.5698 -248.615L50.3599 -260.572L1445.33 2164.77L1424.54 2176.72L29.5698 -248.615Z" fill="white"/>
<path d="M37.28 -246.535L47.67 -252.521L1440.82 2173.87L1430.43 2179.85L37.28 -246.535Z" fill="#F09FC2"/>
<path d="M-10.4302 -248.615L10.3699 -260.581L1406.4 2166.58L1385.59 2178.55L-10.4302 -248.615Z" fill="white"/>
<path d="M-10.4302 -248.615L10.3699 -260.581L1406.4 2166.58L1385.59 2178.55L-10.4302 -248.615Z" fill="white"/>
<path d="M-2.70996 -246.532L7.69995 -252.515L1403.72 2174.65L1393.32 2180.63L-2.70996 -246.532Z" fill="#F09FC2"/>
<path d="M-42.4302 -248.615L-21.6301 -260.581L1374.4 2166.58L1353.59 2178.55L-42.4302 -248.615Z" fill="white"/>
<path d="M-42.4302 -248.615L-21.6301 -260.581L1374.4 2166.58L1353.59 2178.55L-42.4302 -248.615Z" fill="white"/>
<path d="M-34.71 -246.532L-24.3 -252.515L1371.72 2174.65L1361.32 2180.63L-34.71 -246.532Z" fill="#F09FC2"/>
<path d="M-79.4302 -248.615L-58.6301 -260.581L1337.4 2166.58L1316.59 2178.55L-79.4302 -248.615Z" fill="white"/>
<path d="M-79.4302 -248.615L-58.6301 -260.581L1337.4 2166.58L1316.59 2178.55L-79.4302 -248.615Z" fill="white"/>
<path d="M-71.71 -246.532L-61.3 -252.515L1334.72 2174.65L1324.32 2180.63L-71.71 -246.532Z" fill="#F09FC2"/>
<path d="M-79.4302 -248.615L-58.6401 -260.572L1336.33 2164.77L1315.54 2176.72L-79.4302 -248.615Z" fill="white"/>
<path d="M-79.4302 -248.615L-58.6401 -260.572L1336.33 2164.77L1315.54 2176.72L-79.4302 -248.615Z" fill="white"/>
<path d="M-71.72 -246.535L-61.33 -252.521L1331.82 2173.87L1321.43 2179.85L-71.72 -246.535Z" fill="#F09FC2"/>
<path d="M-116.43 -248.615L-95.6401 -260.572L1299.33 2164.77L1278.54 2176.72L-116.43 -248.615Z" fill="white"/>
<path d="M-116.43 -248.615L-95.6401 -260.572L1299.33 2164.77L1278.54 2176.72L-116.43 -248.615Z" fill="white"/>
<path d="M-108.72 -246.535L-98.33 -252.521L1294.82 2173.87L1284.43 2179.85L-108.72 -246.535Z" fill="#F09FC2"/>
<path d="M-155.43 -248.615L-134.64 -260.572L1260.33 2164.77L1239.54 2176.72L-155.43 -248.615Z" fill="white"/>
<path d="M-155.43 -248.615L-134.64 -260.572L1260.33 2164.77L1239.54 2176.72L-155.43 -248.615Z" fill="white"/>
<path d="M-147.72 -246.535L-137.33 -252.521L1255.82 2173.87L1245.43 2179.85L-147.72 -246.535Z" fill="#F09FC2"/>
<path d="M-192.43 -248.615L-171.64 -260.572L1223.33 2164.77L1202.54 2176.72L-192.43 -248.615Z" fill="white"/>
<path d="M-192.43 -248.615L-171.64 -260.572L1223.33 2164.77L1202.54 2176.72L-192.43 -248.615Z" fill="white"/>
<path d="M-184.72 -246.535L-174.33 -252.521L1218.82 2173.87L1208.43 2179.85L-184.72 -246.535Z" fill="#F09FC2"/>
<path d="M-230.43 -248.615L-209.64 -260.572L1185.33 2164.77L1164.54 2176.72L-230.43 -248.615Z" fill="white"/>
<path d="M-230.43 -248.615L-209.64 -260.572L1185.33 2164.77L1164.54 2176.72L-230.43 -248.615Z" fill="white"/>
<path d="M-222.72 -246.535L-212.33 -252.521L1180.82 2173.87L1170.43 2179.85L-222.72 -246.535Z" fill="#F09FC2"/>
<path d="M-266.43 -248.615L-245.626 -260.581L1150.4 2166.58L1129.59 2178.55L-266.43 -248.615Z" fill="white"/>
<path d="M-266.43 -248.615L-245.626 -260.581L1150.4 2166.58L1129.59 2178.55L-266.43 -248.615Z" fill="white"/>
<path d="M-258.706 -246.532L-248.304 -252.515L1147.72 2174.65L1137.32 2180.63L-258.706 -246.532Z" fill="#F09FC2"/>
<path d="M-298.43 -248.615L-277.626 -260.581L1118.4 2166.58L1097.59 2178.55L-298.43 -248.615Z" fill="white"/>
<path d="M-298.43 -248.615L-277.626 -260.581L1118.4 2166.58L1097.59 2178.55L-298.43 -248.615Z" fill="white"/>
<path d="M-290.706 -246.532L-280.304 -252.515L1115.72 2174.65L1105.32 2180.63L-290.706 -246.532Z" fill="#F09FC2"/>
<path d="M-335.43 -248.615L-314.626 -260.581L1081.4 2166.58L1060.59 2178.55L-335.43 -248.615Z" fill="white"/>
<path d="M-335.43 -248.615L-314.626 -260.581L1081.4 2166.58L1060.59 2178.55L-335.43 -248.615Z" fill="white"/>
<path d="M-327.706 -246.532L-317.304 -252.515L1078.72 2174.65L1068.32 2180.63L-327.706 -246.532Z" fill="#F09FC2"/>
<path d="M-335.43 -248.615L-314.642 -260.572L1080.33 2164.77L1059.54 2176.72L-335.43 -248.615Z" fill="white"/>
<path d="M-335.43 -248.615L-314.642 -260.572L1080.33 2164.77L1059.54 2176.72L-335.43 -248.615Z" fill="white"/>
<path d="M-327.718 -246.535L-317.328 -252.521L1075.82 2173.87L1065.43 2179.85L-327.718 -246.535Z" fill="#F09FC2"/>
<path d="M-372.43 -248.615L-351.642 -260.572L1043.33 2164.77L1022.54 2176.72L-372.43 -248.615Z" fill="white"/>
<path d="M-372.43 -248.615L-351.642 -260.572L1043.33 2164.77L1022.54 2176.72L-372.43 -248.615Z" fill="white"/>
<path d="M-364.718 -246.535L-354.328 -252.521L1038.82 2173.87L1028.43 2179.85L-364.718 -246.535Z" fill="#F09FC2"/>
<path d="M-411.43 -248.615L-390.642 -260.572L1004.33 2164.77L983.54 2176.72L-411.43 -248.615Z" fill="white"/>
<path d="M-411.43 -248.615L-390.642 -260.572L1004.33 2164.77L983.54 2176.72L-411.43 -248.615Z" fill="white"/>
<path d="M-403.718 -246.535L-393.328 -252.521L999.82 2173.87L989.43 2179.85L-403.718 -246.535Z" fill="#F09FC2"/>
<path d="M-448.43 -248.615L-427.642 -260.572L967.33 2164.77L946.54 2176.72L-448.43 -248.615Z" fill="white"/>
<path d="M-448.43 -248.615L-427.642 -260.572L967.33 2164.77L946.54 2176.72L-448.43 -248.615Z" fill="white"/>
<path d="M-440.718 -246.535L-430.328 -252.521L962.82 2173.87L952.43 2179.85L-440.718 -246.535Z" fill="#F09FC2"/>
<path d="M-486.43 -248.615L-465.642 -260.572L929.33 2164.77L908.54 2176.72L-486.43 -248.615Z" fill="white"/>
<path d="M-486.43 -248.615L-465.642 -260.572L929.33 2164.77L908.54 2176.72L-486.43 -248.615Z" fill="white"/>
<path d="M-478.718 -246.535L-468.328 -252.521L924.82 2173.87L914.43 2179.85L-478.718 -246.535Z" fill="#F09FC2"/>
<path d="M-526.43 -248.615L-505.626 -260.581L890.4 2166.58L869.59 2178.55L-526.43 -248.615Z" fill="white"/>
<path d="M-526.43 -248.615L-505.626 -260.581L890.4 2166.58L869.59 2178.55L-526.43 -248.615Z" fill="white"/>
<path d="M-518.706 -246.532L-508.304 -252.515L887.72 2174.65L877.32 2180.63L-518.706 -246.532Z" fill="#F09FC2"/>
<path d="M-558.43 -248.615L-537.626 -260.581L858.4 2166.58L837.59 2178.55L-558.43 -248.615Z" fill="white"/>
<path d="M-558.43 -248.615L-537.626 -260.581L858.4 2166.58L837.59 2178.55L-558.43 -248.615Z" fill="white"/>
<path d="M-550.706 -246.532L-540.304 -252.515L855.72 2174.65L845.32 2180.63L-550.706 -246.532Z" fill="#F09FC2"/>
<path d="M-595.43 -248.615L-574.626 -260.581L821.4 2166.58L800.59 2178.55L-595.43 -248.615Z" fill="white"/>
<path d="M-595.43 -248.615L-574.626 -260.581L821.4 2166.58L800.59 2178.55L-595.43 -248.615Z" fill="white"/>
<path d="M-587.706 -246.532L-577.304 -252.515L818.72 2174.65L808.32 2180.63L-587.706 -246.532Z" fill="#F09FC2"/>
<path d="M-595.43 -248.615L-574.642 -260.572L820.33 2164.77L799.54 2176.72L-595.43 -248.615Z" fill="white"/>
<path d="M-595.43 -248.615L-574.642 -260.572L820.33 2164.77L799.54 2176.72L-595.43 -248.615Z" fill="white"/>
<path d="M-587.718 -246.535L-577.328 -252.521L815.82 2173.87L805.43 2179.85L-587.718 -246.535Z" fill="#F09FC2"/>
<path d="M-632.43 -248.615L-611.642 -260.572L783.33 2164.77L762.54 2176.72L-632.43 -248.615Z" fill="white"/>
<path d="M-632.43 -248.615L-611.642 -260.572L783.33 2164.77L762.54 2176.72L-632.43 -248.615Z" fill="white"/>
<path d="M-624.718 -246.535L-614.328 -252.521L778.82 2173.87L768.43 2179.85L-624.718 -246.535Z" fill="#F09FC2"/>
<path d="M-671.43 -248.615L-650.642 -260.572L744.33 2164.77L723.54 2176.72L-671.43 -248.615Z" fill="white"/>
<path d="M-671.43 -248.615L-650.642 -260.572L744.33 2164.77L723.54 2176.72L-671.43 -248.615Z" fill="white"/>
<path d="M-663.718 -246.535L-653.328 -252.521L739.82 2173.87L729.43 2179.85L-663.718 -246.535Z" fill="#F09FC2"/>
<path d="M-708.43 -248.615L-687.642 -260.572L707.33 2164.77L686.54 2176.72L-708.43 -248.615Z" fill="white"/>
<path d="M-708.43 -248.615L-687.642 -260.572L707.33 2164.77L686.54 2176.72L-708.43 -248.615Z" fill="white"/>
<path d="M-700.718 -246.535L-690.328 -252.521L702.82 2173.87L692.43 2179.85L-700.718 -246.535Z" fill="#F09FC2"/>
<path d="M-746.43 -248.615L-725.642 -260.572L669.33 2164.77L648.54 2176.72L-746.43 -248.615Z" fill="white"/>
<path d="M-746.43 -248.615L-725.642 -260.572L669.33 2164.77L648.54 2176.72L-746.43 -248.615Z" fill="white"/>
<path d="M-738.718 -246.535L-728.328 -252.521L664.82 2173.87L654.43 2179.85L-738.718 -246.535Z" fill="#F09FC2"/>
<path d="M-789.43 -248.615L-768.642 -260.572L626.33 2164.77L605.54 2176.72L-789.43 -248.615Z" fill="white"/>
<path d="M-789.43 -248.615L-768.642 -260.572L626.33 2164.77L605.54 2176.72L-789.43 -248.615Z" fill="white"/>
<path d="M-781.718 -246.535L-771.328 -252.521L621.82 2173.87L611.43 2179.85L-781.718 -246.535Z" fill="#F09FC2"/>
<path d="M-826.43 -248.615L-805.642 -260.572L589.33 2164.77L568.54 2176.72L-826.43 -248.615Z" fill="white"/>
<path d="M-826.43 -248.615L-805.642 -260.572L589.33 2164.77L568.54 2176.72L-826.43 -248.615Z" fill="white"/>
<path d="M-818.718 -246.535L-808.328 -252.521L584.82 2173.87L574.43 2179.85L-818.718 -246.535Z" fill="#F09FC2"/>
<path d="M-864.43 -248.615L-843.642 -260.572L551.33 2164.77L530.54 2176.72L-864.43 -248.615Z" fill="white"/>
<path d="M-864.43 -248.615L-843.642 -260.572L551.33 2164.77L530.54 2176.72L-864.43 -248.615Z" fill="white"/>
<path d="M-856.718 -246.535L-846.328 -252.521L546.82 2173.87L536.43 2179.85L-856.718 -246.535Z" fill="#F09FC2"/>
<path d="M-904.43 -248.615L-883.626 -260.581L512.4 2166.58L491.59 2178.55L-904.43 -248.615Z" fill="white"/>
<path d="M-904.43 -248.615L-883.626 -260.581L512.4 2166.58L491.59 2178.55L-904.43 -248.615Z" fill="white"/>
<path d="M-896.706 -246.532L-886.304 -252.515L509.72 2174.65L499.32 2180.63L-896.706 -246.532Z" fill="#F09FC2"/>
<path d="M-936.43 -248.615L-915.626 -260.581L480.4 2166.58L459.59 2178.55L-936.43 -248.615Z" fill="white"/>
<path d="M-936.43 -248.615L-915.626 -260.581L480.4 2166.58L459.59 2178.55L-936.43 -248.615Z" fill="white"/>
<path d="M-928.706 -246.532L-918.304 -252.515L477.72 2174.65L467.32 2180.63L-928.706 -246.532Z" fill="#F09FC2"/>
<path d="M-973.43 -248.615L-952.626 -260.581L443.4 2166.58L422.59 2178.55L-973.43 -248.615Z" fill="white"/>
<path d="M-973.43 -248.615L-952.626 -260.581L443.4 2166.58L422.59 2178.55L-973.43 -248.615Z" fill="white"/>
<path d="M-965.706 -246.532L-955.304 -252.515L440.72 2174.65L430.32 2180.63L-965.706 -246.532Z" fill="#F09FC2"/>
<path d="M-973.43 -248.615L-952.642 -260.572L442.33 2164.77L421.54 2176.72L-973.43 -248.615Z" fill="white"/>
<path d="M-973.43 -248.615L-952.642 -260.572L442.33 2164.77L421.54 2176.72L-973.43 -248.615Z" fill="white"/>
<path d="M-965.718 -246.535L-955.328 -252.521L437.82 2173.87L427.43 2179.85L-965.718 -246.535Z" fill="#F09FC2"/>
<path d="M-1010.43 -248.615L-989.642 -260.572L405.33 2164.77L384.54 2176.72L-1010.43 -248.615Z" fill="white"/>
<path d="M-1010.43 -248.615L-989.642 -260.572L405.33 2164.77L384.54 2176.72L-1010.43 -248.615Z" fill="white"/>
<path d="M-1002.72 -246.535L-992.328 -252.521L400.82 2173.87L390.43 2179.85L-1002.72 -246.535Z" fill="#F09FC2"/>
<path d="M-1049.43 -248.615L-1028.64 -260.572L366.33 2164.77L345.54 2176.72L-1049.43 -248.615Z" fill="white"/>
<path d="M-1049.43 -248.615L-1028.64 -260.572L366.33 2164.77L345.54 2176.72L-1049.43 -248.615Z" fill="white"/>
<path d="M-1041.72 -246.535L-1031.33 -252.521L361.82 2173.87L351.43 2179.85L-1041.72 -246.535Z" fill="#F09FC2"/>
<path d="M-1086.43 -248.615L-1065.64 -260.572L329.33 2164.77L308.54 2176.72L-1086.43 -248.615Z" fill="white"/>
<path d="M-1086.43 -248.615L-1065.64 -260.572L329.33 2164.77L308.54 2176.72L-1086.43 -248.615Z" fill="white"/>
<path d="M-1078.72 -246.535L-1068.33 -252.521L324.82 2173.87L314.43 2179.85L-1078.72 -246.535Z" fill="#F09FC2"/>
<path d="M-1124.43 -248.615L-1103.64 -260.572L291.33 2164.77L270.54 2176.72L-1124.43 -248.615Z" fill="white"/>
<path d="M-1124.43 -248.615L-1103.64 -260.572L291.33 2164.77L270.54 2176.72L-1124.43 -248.615Z" fill="white"/>
<path d="M-1116.72 -246.535L-1106.33 -252.521L286.82 2173.87L276.43 2179.85L-1116.72 -246.535Z" fill="#F09FC2"/>
<path d="M-1161.43 -248.615L-1140.64 -260.572L254.33 2164.77L233.54 2176.72L-1161.43 -248.615Z" fill="white"/>
<path d="M-1161.43 -248.615L-1140.64 -260.572L254.33 2164.77L233.54 2176.72L-1161.43 -248.615Z" fill="white"/>
<path d="M-1153.72 -246.535L-1143.33 -252.521L249.82 2173.87L239.43 2179.85L-1153.72 -246.535Z" fill="#F09FC2"/>
<path d="M-1201.43 -248.615L-1180.64 -260.572L214.33 2164.77L193.54 2176.72L-1201.43 -248.615Z" fill="white"/>
<path d="M-1201.43 -248.615L-1180.64 -260.572L214.33 2164.77L193.54 2176.72L-1201.43 -248.615Z" fill="white"/>
<path d="M-1193.72 -246.535L-1183.33 -252.521L209.82 2173.87L199.43 2179.85L-1193.72 -246.535Z" fill="#F09FC2"/>
<path d="M-1236.43 -248.615L-1215.64 -260.572L179.33 2164.77L158.54 2176.72L-1236.43 -248.615Z" fill="white"/>
<path d="M-1236.43 -248.615L-1215.64 -260.572L179.33 2164.77L158.54 2176.72L-1236.43 -248.615Z" fill="white"/>
<path d="M-1228.72 -246.535L-1218.33 -252.521L174.82 2173.87L164.43 2179.85L-1228.72 -246.535Z" fill="#F09FC2"/>
<path d="M1739.12 -248.615L1759.92 -260.581L3155.95 2166.58L3135.14 2178.55L1739.12 -248.615Z" fill="white"/>
<path d="M1739.12 -248.615L1759.92 -260.581L3155.95 2166.58L3135.14 2178.55L1739.12 -248.615Z" fill="white"/>
<path d="M1746.84 -246.532L1757.24 -252.515L3153.27 2174.65L3142.87 2180.63L1746.84 -246.532Z" fill="#F09FC2"/>
<path d="M1702.12 -248.615L1722.92 -260.581L3118.95 2166.58L3098.14 2178.55L1702.12 -248.615Z" fill="white"/>
<path d="M1702.12 -248.615L1722.92 -260.581L3118.95 2166.58L3098.14 2178.55L1702.12 -248.615Z" fill="white"/>
<path d="M1709.84 -246.532L1720.24 -252.515L3116.27 2174.65L3105.87 2180.63L1709.84 -246.532Z" fill="#F09FC2"/>
<path d="M1702.12 -248.615L1722.91 -260.572L3117.88 2164.77L3097.09 2176.72L1702.12 -248.615Z" fill="white"/>
<path d="M1702.12 -248.615L1722.91 -260.572L3117.88 2164.77L3097.09 2176.72L1702.12 -248.615Z" fill="white"/>
<path d="M1709.83 -246.535L1720.22 -252.521L3113.37 2173.87L3102.98 2179.85L1709.83 -246.535Z" fill="#F09FC2"/>
<path d="M1665.12 -248.615L1685.91 -260.572L3080.88 2164.77L3060.09 2176.72L1665.12 -248.615Z" fill="white"/>
<path d="M1665.12 -248.615L1685.91 -260.572L3080.88 2164.77L3060.09 2176.72L1665.12 -248.615Z" fill="white"/>
<path d="M1672.83 -246.535L1683.22 -252.521L3076.37 2173.87L3065.98 2179.85L1672.83 -246.535Z" fill="#F09FC2"/>
<path d="M1626.12 -248.615L1646.91 -260.572L3041.88 2164.77L3021.09 2176.72L1626.12 -248.615Z" fill="white"/>
<path d="M1626.12 -248.615L1646.91 -260.572L3041.88 2164.77L3021.09 2176.72L1626.12 -248.615Z" fill="white"/>
<path d="M1633.83 -246.535L1644.22 -252.521L3037.37 2173.87L3026.98 2179.85L1633.83 -246.535Z" fill="#F09FC2"/>
<path d="M1589.12 -248.615L1609.91 -260.572L3004.88 2164.77L2984.09 2176.72L1589.12 -248.615Z" fill="white"/>
<path d="M1589.12 -248.615L1609.91 -260.572L3004.88 2164.77L2984.09 2176.72L1589.12 -248.615Z" fill="white"/>
<path d="M1596.83 -246.535L1607.22 -252.521L3000.37 2173.87L2989.98 2179.85L1596.83 -246.535Z" fill="#F09FC2"/>
<path d="M1551.12 -248.615L1571.91 -260.572L2966.88 2164.77L2946.09 2176.72L1551.12 -248.615Z" fill="white"/>
<path d="M1551.12 -248.615L1571.91 -260.572L2966.88 2164.77L2946.09 2176.72L1551.12 -248.615Z" fill="white"/>
<path d="M1558.83 -246.535L1569.22 -252.521L2962.37 2173.87L2951.98 2179.85L1558.83 -246.535Z" fill="#F09FC2"/>
<path d="M1511.12 -248.615L1531.92 -260.581L2927.95 2166.58L2907.14 2178.55L1511.12 -248.615Z" fill="white"/>
<path d="M1511.12 -248.615L1531.92 -260.581L2927.95 2166.58L2907.14 2178.55L1511.12 -248.615Z" fill="white"/>
<path d="M1518.84 -246.532L1529.24 -252.515L2925.27 2174.65L2914.87 2180.63L1518.84 -246.532Z" fill="#F09FC2"/>
<path d="M1479.12 -248.615L1499.92 -260.581L2895.95 2166.58L2875.14 2178.55L1479.12 -248.615Z" fill="white"/>
<path d="M1479.12 -248.615L1499.92 -260.581L2895.95 2166.58L2875.14 2178.55L1479.12 -248.615Z" fill="white"/>
<path d="M1486.84 -246.532L1497.24 -252.515L2893.27 2174.65L2882.87 2180.63L1486.84 -246.532Z" fill="#F09FC2"/>
<path d="M1442.12 -248.615L1462.92 -260.581L2858.95 2166.58L2838.14 2178.55L1442.12 -248.615Z" fill="white"/>
<path d="M1442.12 -248.615L1462.92 -260.581L2858.95 2166.58L2838.14 2178.55L1442.12 -248.615Z" fill="white"/>
<path d="M1449.84 -246.532L1460.24 -252.515L2856.27 2174.65L2845.87 2180.63L1449.84 -246.532Z" fill="#F09FC2"/>
<path d="M1442.12 -248.615L1462.91 -260.572L2857.88 2164.77L2837.09 2176.72L1442.12 -248.615Z" fill="white"/>
<path d="M1442.12 -248.615L1462.91 -260.572L2857.88 2164.77L2837.09 2176.72L1442.12 -248.615Z" fill="white"/>
<path d="M1449.83 -246.535L1460.22 -252.521L2853.37 2173.87L2842.98 2179.85L1449.83 -246.535Z" fill="#F09FC2"/>
<path d="M1405.12 -248.615L1425.91 -260.572L2820.88 2164.77L2800.09 2176.72L1405.12 -248.615Z" fill="white"/>
<path d="M1405.12 -248.615L1425.91 -260.572L2820.88 2164.77L2800.09 2176.72L1405.12 -248.615Z" fill="white"/>
<path d="M1412.83 -246.535L1423.22 -252.521L2816.37 2173.87L2805.98 2179.85L1412.83 -246.535Z" fill="#F09FC2"/>
<path d="M1366.12 -248.615L1386.91 -260.572L2781.88 2164.77L2761.09 2176.72L1366.12 -248.615Z" fill="white"/>
<path d="M1366.12 -248.615L1386.91 -260.572L2781.88 2164.77L2761.09 2176.72L1366.12 -248.615Z" fill="white"/>
<path d="M1373.83 -246.535L1384.22 -252.521L2777.37 2173.87L2766.98 2179.85L1373.83 -246.535Z" fill="#F09FC2"/>
<path d="M1329.12 -248.615L1349.91 -260.572L2744.88 2164.77L2724.09 2176.72L1329.12 -248.615Z" fill="white"/>
<path d="M1329.12 -248.615L1349.91 -260.572L2744.88 2164.77L2724.09 2176.72L1329.12 -248.615Z" fill="white"/>
<path d="M1336.83 -246.535L1347.22 -252.521L2740.37 2173.87L2729.98 2179.85L1336.83 -246.535Z" fill="#F09FC2"/>
<path d="M1291.12 -248.615L1311.91 -260.572L2706.88 2164.77L2686.09 2176.72L1291.12 -248.615Z" fill="white"/>
<path d="M1291.12 -248.615L1311.91 -260.572L2706.88 2164.77L2686.09 2176.72L1291.12 -248.615Z" fill="white"/>
<path d="M1298.83 -246.535L1309.22 -252.521L2702.37 2173.87L2691.98 2179.85L1298.83 -246.535Z" fill="#F09FC2"/>
<path d="M1255.12 -248.615L1275.92 -260.581L2671.95 2166.58L2651.14 2178.55L1255.12 -248.615Z" fill="white"/>
<path d="M1255.12 -248.615L1275.92 -260.581L2671.95 2166.58L2651.14 2178.55L1255.12 -248.615Z" fill="white"/>
<path d="M1262.84 -246.532L1273.24 -252.515L2669.27 2174.65L2658.87 2180.63L1262.84 -246.532Z" fill="#F09FC2"/>
<path d="M1223.12 -248.615L1243.92 -260.581L2639.95 2166.58L2619.14 2178.55L1223.12 -248.615Z" fill="white"/>
<path d="M1223.12 -248.615L1243.92 -260.581L2639.95 2166.58L2619.14 2178.55L1223.12 -248.615Z" fill="white"/>
<path d="M1230.84 -246.532L1241.24 -252.515L2637.27 2174.65L2626.87 2180.63L1230.84 -246.532Z" fill="#F09FC2"/>
<path d="M1186.12 -248.615L1206.92 -260.581L2602.95 2166.58L2582.14 2178.55L1186.12 -248.615Z" fill="white"/>
<path d="M1186.12 -248.615L1206.92 -260.581L2602.95 2166.58L2582.14 2178.55L1186.12 -248.615Z" fill="white"/>
<path d="M1193.84 -246.532L1204.24 -252.515L2600.27 2174.65L2589.87 2180.63L1193.84 -246.532Z" fill="#F09FC2"/>
<path d="M1186.12 -248.615L1206.91 -260.572L2601.88 2164.77L2581.09 2176.72L1186.12 -248.615Z" fill="white"/>
<path d="M1186.12 -248.615L1206.91 -260.572L2601.88 2164.77L2581.09 2176.72L1186.12 -248.615Z" fill="white"/>
<path d="M1193.83 -246.535L1204.22 -252.521L2597.37 2173.87L2586.98 2179.85L1193.83 -246.535Z" fill="#F09FC2"/>
<path d="M1149.12 -248.615L1169.91 -260.572L2564.88 2164.77L2544.09 2176.72L1149.12 -248.615Z" fill="white"/>
<path d="M1149.12 -248.615L1169.91 -260.572L2564.88 2164.77L2544.09 2176.72L1149.12 -248.615Z" fill="white"/>
<path d="M1156.83 -246.535L1167.22 -252.521L2560.37 2173.87L2549.98 2179.85L1156.83 -246.535Z" fill="#F09FC2"/>
<path d="M1110.12 -248.615L1130.91 -260.572L2525.88 2164.77L2505.09 2176.72L1110.12 -248.615Z" fill="white"/>
<path d="M1110.12 -248.615L1130.91 -260.572L2525.88 2164.77L2505.09 2176.72L1110.12 -248.615Z" fill="white"/>
<path d="M1117.83 -246.535L1128.22 -252.521L2521.37 2173.87L2510.98 2179.85L1117.83 -246.535Z" fill="#F09FC2"/>
<path d="M1073.12 -248.615L1093.91 -260.572L2488.88 2164.77L2468.09 2176.72L1073.12 -248.615Z" fill="white"/>
<path d="M1073.12 -248.615L1093.91 -260.572L2488.88 2164.77L2468.09 2176.72L1073.12 -248.615Z" fill="white"/>
<path d="M1080.83 -246.535L1091.22 -252.521L2484.37 2173.87L2473.98 2179.85L1080.83 -246.535Z" fill="#F09FC2"/>
<path d="M1035.12 -248.615L1055.91 -260.572L2450.88 2164.77L2430.09 2176.72L1035.12 -248.615Z" fill="white"/>
<path d="M1035.12 -248.615L1055.91 -260.572L2450.88 2164.77L2430.09 2176.72L1035.12 -248.615Z" fill="white"/>
<path d="M1042.83 -246.535L1053.22 -252.521L2446.37 2173.87L2435.98 2179.85L1042.83 -246.535Z" fill="#F09FC2"/>
<path d="M995.12 -248.615L1015.92 -260.581L2411.95 2166.58L2391.14 2178.55L995.12 -248.615Z" fill="white"/>
<path d="M995.12 -248.615L1015.92 -260.581L2411.95 2166.58L2391.14 2178.55L995.12 -248.615Z" fill="white"/>
<path d="M1002.84 -246.532L1013.24 -252.515L2409.27 2174.65L2398.87 2180.63L1002.84 -246.532Z" fill="#F09FC2"/>
<path d="M963.12 -248.615L983.92 -260.581L2379.95 2166.58L2359.14 2178.55L963.12 -248.615Z" fill="white"/>
<path d="M963.12 -248.615L983.92 -260.581L2379.95 2166.58L2359.14 2178.55L963.12 -248.615Z" fill="white"/>
<path d="M970.84 -246.532L981.24 -252.515L2377.27 2174.65L2366.87 2180.63L970.84 -246.532Z" fill="#F09FC2"/>
<path d="M926.12 -248.615L946.92 -260.581L2342.95 2166.58L2322.14 2178.55L926.12 -248.615Z" fill="white"/>
<path d="M926.12 -248.615L946.92 -260.581L2342.95 2166.58L2322.14 2178.55L926.12 -248.615Z" fill="white"/>
<path d="M933.84 -246.532L944.24 -252.515L2340.27 2174.65L2329.87 2180.63L933.84 -246.532Z" fill="#F09FC2"/>
<path d="M926.12 -248.615L946.91 -260.572L2341.88 2164.77L2321.09 2176.72L926.12 -248.615Z" fill="white"/>
<path d="M926.12 -248.615L946.91 -260.572L2341.88 2164.77L2321.09 2176.72L926.12 -248.615Z" fill="white"/>
<path d="M933.83 -246.535L944.22 -252.521L2337.37 2173.87L2326.98 2179.85L933.83 -246.535Z" fill="#F09FC2"/>
<path d="M889.12 -248.615L909.91 -260.572L2304.88 2164.77L2284.09 2176.72L889.12 -248.615Z" fill="white"/>
<path d="M889.12 -248.615L909.91 -260.572L2304.88 2164.77L2284.09 2176.72L889.12 -248.615Z" fill="white"/>
<path d="M896.83 -246.535L907.22 -252.521L2300.37 2173.87L2289.98 2179.85L896.83 -246.535Z" fill="#F09FC2"/>
<path d="M850.12 -248.615L870.91 -260.572L2265.88 2164.77L2245.09 2176.72L850.12 -248.615Z" fill="white"/>
<path d="M850.12 -248.615L870.91 -260.572L2265.88 2164.77L2245.09 2176.72L850.12 -248.615Z" fill="white"/>
<path d="M857.83 -246.535L868.22 -252.521L2261.37 2173.87L2250.98 2179.85L857.83 -246.535Z" fill="#F09FC2"/>
<path d="M813.12 -248.615L833.91 -260.572L2228.88 2164.77L2208.09 2176.72L813.12 -248.615Z" fill="white"/>
<path d="M813.12 -248.615L833.91 -260.572L2228.88 2164.77L2208.09 2176.72L813.12 -248.615Z" fill="white"/>
<path d="M820.83 -246.535L831.22 -252.521L2224.37 2173.87L2213.98 2179.85L820.83 -246.535Z" fill="#F09FC2"/>
<path d="M775.12 -248.615L795.91 -260.572L2190.88 2164.77L2170.09 2176.72L775.12 -248.615Z" fill="white"/>
<path d="M775.12 -248.615L795.91 -260.572L2190.88 2164.77L2170.09 2176.72L775.12 -248.615Z" fill="white"/>
<path d="M782.83 -246.535L793.22 -252.521L2186.37 2173.87L2175.98 2179.85L782.83 -246.535Z" fill="#F09FC2"/>
<path d="M732.12 -248.615L752.91 -260.572L2147.88 2164.77L2127.09 2176.72L732.12 -248.615Z" fill="white"/>
<path d="M732.12 -248.615L752.91 -260.572L2147.88 2164.77L2127.09 2176.72L732.12 -248.615Z" fill="white"/>
<path d="M739.83 -246.535L750.22 -252.521L2143.37 2173.87L2132.98 2179.85L739.83 -246.535Z" fill="#F09FC2"/>
<path d="M695.12 -248.615L715.91 -260.572L2110.88 2164.77L2090.09 2176.72L695.12 -248.615Z" fill="white"/>
<path d="M695.12 -248.615L715.91 -260.572L2110.88 2164.77L2090.09 2176.72L695.12 -248.615Z" fill="white"/>
<path d="M702.83 -246.535L713.22 -252.521L2106.37 2173.87L2095.98 2179.85L702.83 -246.535Z" fill="#F09FC2"/>
<path d="M657.12 -248.615L677.91 -260.572L2072.88 2164.77L2052.09 2176.72L657.12 -248.615Z" fill="white"/>
<path d="M657.12 -248.615L677.91 -260.572L2072.88 2164.77L2052.09 2176.72L657.12 -248.615Z" fill="white"/>
<path d="M664.83 -246.535L675.22 -252.521L2068.37 2173.87L2057.98 2179.85L664.83 -246.535Z" fill="#F09FC2"/>
<path d="M617.12 -248.615L637.92 -260.581L2033.95 2166.58L2013.14 2178.55L617.12 -248.615Z" fill="white"/>
<path d="M617.12 -248.615L637.92 -260.581L2033.95 2166.58L2013.14 2178.55L617.12 -248.615Z" fill="white"/>
<path d="M624.84 -246.532L635.24 -252.515L2031.27 2174.65L2020.87 2180.63L624.84 -246.532Z" fill="#F09FC2"/>
<path d="M585.12 -248.615L605.92 -260.581L2001.95 2166.58L1981.14 2178.55L585.12 -248.615Z" fill="white"/>
<path d="M585.12 -248.615L605.92 -260.581L2001.95 2166.58L1981.14 2178.55L585.12 -248.615Z" fill="white"/>
<path d="M592.84 -246.532L603.24 -252.515L1999.27 2174.65L1988.87 2180.63L592.84 -246.532Z" fill="#F09FC2"/>
<path d="M548.12 -248.615L568.92 -260.581L1964.95 2166.58L1944.14 2178.55L548.12 -248.615Z" fill="white"/>
<path d="M548.12 -248.615L568.92 -260.581L1964.95 2166.58L1944.14 2178.55L548.12 -248.615Z" fill="white"/>
<path d="M555.84 -246.532L566.24 -252.515L1962.27 2174.65L1951.87 2180.63L555.84 -246.532Z" fill="#F09FC2"/>
<path d="M548.12 -248.615L568.91 -260.572L1963.88 2164.77L1943.09 2176.72L548.12 -248.615Z" fill="white"/>
<path d="M548.12 -248.615L568.91 -260.572L1963.88 2164.77L1943.09 2176.72L548.12 -248.615Z" fill="white"/>
<path d="M555.83 -246.535L566.22 -252.521L1959.37 2173.87L1948.98 2179.85L555.83 -246.535Z" fill="#F09FC2"/>
<path d="M511.12 -248.615L531.91 -260.572L1926.88 2164.77L1906.09 2176.72L511.12 -248.615Z" fill="white"/>
<path d="M511.12 -248.615L531.91 -260.572L1926.88 2164.77L1906.09 2176.72L511.12 -248.615Z" fill="white"/>
<path d="M518.83 -246.535L529.22 -252.521L1922.37 2173.87L1911.98 2179.85L518.83 -246.535Z" fill="#F09FC2"/>
<path d="M472.12 -248.615L492.91 -260.572L1887.88 2164.77L1867.09 2176.72L472.12 -248.615Z" fill="white"/>
<path d="M472.12 -248.615L492.91 -260.572L1887.88 2164.77L1867.09 2176.72L472.12 -248.615Z" fill="white"/>
<path d="M479.83 -246.535L490.22 -252.521L1883.37 2173.87L1872.98 2179.85L479.83 -246.535Z" fill="#F09FC2"/>
<path d="M435.12 -248.615L455.91 -260.572L1850.88 2164.77L1830.09 2176.72L435.12 -248.615Z" fill="white"/>
<path d="M435.12 -248.615L455.91 -260.572L1850.88 2164.77L1830.09 2176.72L435.12 -248.615Z" fill="white"/>
<path d="M442.83 -246.535L453.22 -252.521L1846.37 2173.87L1835.98 2179.85L442.83 -246.535Z" fill="#F09FC2"/>
<path d="M397.12 -248.615L417.91 -260.572L1812.88 2164.77L1792.09 2176.72L397.12 -248.615Z" fill="white"/>
<path d="M397.12 -248.615L417.91 -260.572L1812.88 2164.77L1792.09 2176.72L397.12 -248.615Z" fill="white"/>
<path d="M404.83 -246.535L415.22 -252.521L1808.37 2173.87L1797.98 2179.85L404.83 -246.535Z" fill="#F09FC2"/>
<path d="M360.12 -248.615L380.91 -260.572L1775.88 2164.77L1755.09 2176.72L360.12 -248.615Z" fill="white"/>
<path d="M360.12 -248.615L380.91 -260.572L1775.88 2164.77L1755.09 2176.72L360.12 -248.615Z" fill="white"/>
<path d="M367.83 -246.535L378.22 -252.521L1771.37 2173.87L1760.98 2179.85L367.83 -246.535Z" fill="#F09FC2"/>
<path d="M320.12 -248.615L340.91 -260.572L1735.88 2164.77L1715.09 2176.72L320.12 -248.615Z" fill="white"/>
<path d="M320.12 -248.615L340.91 -260.572L1735.88 2164.77L1715.09 2176.72L320.12 -248.615Z" fill="white"/>
<path d="M327.83 -246.535L338.22 -252.521L1731.37 2173.87L1720.98 2179.85L327.83 -246.535Z" fill="#F09FC2"/>
<path d="M285.12 -248.615L305.91 -260.572L1700.88 2164.77L1680.09 2176.72L285.12 -248.615Z" fill="white"/>
<path d="M285.12 -248.615L305.91 -260.572L1700.88 2164.77L1680.09 2176.72L285.12 -248.615Z" fill="white"/>
<path d="M292.83 -246.535L303.22 -252.521L1696.37 2173.87L1685.98 2179.85L292.83 -246.535Z" fill="#F09FC2"/>
</g>
</g>
</svg>
